IKResults
version=1
nRows=5
nColumns=40
inDegrees=yes

Units are S.I. units (second, meters, Newtons, ...)
Angles are in degrees.

endheader
time	pelvis_tilt	pelvis_list	pelvis_rotation	pelvis_tx	pelvis_ty	pelvis_tz	hip_flexion_r	hip_adduction_r	hip_rotation_r	knee_angle_r	knee_angle_r_beta	ankle_angle_r	subtalar_angle_r	mtp_angle_r	hip_flexion_l	hip_adduction_l	hip_rotation_l	knee_angle_l	knee_angle_l_beta	ankle_angle_l	subtalar_angle_l	mtp_angle_l	lumbar_extension	lumbar_bending	lumbar_rotation	arm_flex_r	arm_add_r	arm_rot_r	elbow_flex_r	pro_sup_r	wrist_flex_r	wrist_dev_r	arm_flex_l	arm_add_l	arm_rot_l	elbow_flex_l	pro_sup_l	wrist_flex_l	wrist_dev_l
      1.22000000	     17.47135862	      0.65385469	     -2.63813011	      0.40617038	      0.94020340	     -0.97781081	    -27.01598442	      0.45356118	    -10.10015749	    -14.35972993	     -0.25062457	     12.67300442	     -1.31885763	     -2.67962400	      3.27124387	      1.75760408	     19.71566543	    -19.65797155	     -0.34309633	      6.54739310	      4.95147983	      1.06287976	    -23.47677951	     -2.91220574	      4.90822581	      8.18538163	    -13.59162425	     -0.52358966	     39.48478045	     89.95437384	      0.00000000	      0.00000000	    -11.44058129	      7.73195955	     -1.05545419	     16.02217029	     89.95437384	      0.00000000	      0.00000000
      1.23000000	     17.41723500	      0.62938674	     -2.91597976	      0.41706900	      0.93854355	     -0.97812640	    -27.50433659	      0.23884859	     -9.66866224	    -14.72940370	     -0.25707659	     13.00342169	     -1.23828962	     -2.79037010	      3.70937716	      1.96680416	     22.32020401	    -17.76514416	     -0.31006026	      5.24125218	      1.13351369	     -5.84556349	    -23.39822407	     -2.93469165	      5.18044211	      8.38714048	    -13.76741530	     -0.79402426	     40.53749129	     89.95437384	      0.00000000	      0.00000000	    -11.96781089	      7.53209896	     -0.55777645	     15.62356985	     89.95437384	      0.00000000	      0.00000000
      1.24000000	     17.39129268	      0.89084501	     -3.18272344	      0.42796292	      0.93693506	     -0.97892660	    -27.73808423	     -0.40232269	     -9.85338173	    -15.68628784	     -0.27377737	     13.42516568	     -0.55324521	     -2.94488182	      3.95049051	      1.51370718	     23.78542281	    -15.79712963	     -0.27571192	      4.57207169	     -1.66555886	     -5.74544094	    -23.34905584	     -3.22421941	      5.31476311	      8.54741250	    -14.05897886	     -0.75076279	     41.64049290	     89.95437384	      0.00000000	      0.00000000	    -12.42912499	      7.33504266	     -0.07141289	     15.25143857	     89.95437384	      0.00000000	      0.00000000
      1.25000000	     17.35741867	      1.04824204	     -3.49989979	      0.43897249	      0.93535544	     -0.97966956	    -28.01023094	     -0.91727637	     -9.61444448	    -16.49888245	     -0.28795982	     13.59305281	     -0.33167806	     -3.36048196	      4.27566996	      1.29106942	     25.54085796	    -14.38921536	     -0.25113918	      3.90887249	     -4.86439998	     -6.21592442	    -23.28704226	     -3.42346733	      5.49742583	      8.67274630	    -14.25943462	     -0.90193790	     42.69139683	     89.95437384	      0.00000000	      0.00000000	    -12.82674644	      7.08498504	      0.57040778	     14.82253861	     89.95437384	      0.00000000	      0.00000000
      1.26000000	     17.13302597	      1.02557714	     -3.35079503	      0.44970651	      0.93360454	     -0.98076170	    -28.19229078	     -0.94256406	     -9.33301406	    -17.10025347	     -0.29845573	     13.55207798	     -0.42534801	     -3.35773326	      5.01598447	      1.14144246	     25.73605774	    -13.64962924	     -0.23823097	      4.11570242	     -5.16315765	     -6.20200809	    -23.07351620	     -3.30281255	      5.24738736	      8.94601057	    -14.33120286	     -1.01247783	     43.42563059	     89.95437384	      0.00000000	      0.00000000	    -13.29636279	      6.99271804	      0.57879122	     14.64675067	     89.95437384	      0.00000000	      0.00000000
